<?xml version="1.0" standalone="no"?><svg width="1100px" height="1100px" viewBox="-50 -50 1100 1100" xmlns="http://www.w3.org/2000/svg" version="1.1">   <title>Seed: 1236</title> <g><path d=" M 100 200 76.94860829601663 180.0986355145278  L 300 600 330.1402168737342 533.87952083233 " fill="rgb(3, 189, 189)"  /> <path d=" M 100 200 106.90356787984886 193.98782094685328  L 300 600 243.8729835441486 577.2606082112594 " fill="rgb(9, 74, 74)"  /> <path d=" M 100 200 84.29158632889138 232.91154632392073  L 300 600 177.34715204902028 663.9311179562244 " fill="rgb(2, 195, 195)"  /> <path d=" M 100 200 112.56817320466475 294.1074994014858  L 300 600 148.56115426944365 642.413356161758 " fill="rgb(7, 151, 151)"  /> <path d=" M 100 200 161.44784965720612 300.6916018723584  L 300 600 408.13496254124715 611.9486467831786 " fill="rgb(7, 28, 28)"  /> <path d=" M 100 200 126.13038851267551 222.48572382781884  L 300 600 435.6707383198854 575.0710253519501 " fill="rgb(8, 65, 65)"  /> <path d=" M 100 200 155.27552002046724 255.0094986420122  L 300 600 416.560125748068 502.6714668046975 " fill="rgb(7, 117, 117)"  /> <path d=" M 100 200 91.65525352515549 348.82091277418266  L 300 600 352.5125361847615 471.5518283334314 " fill="rgb(1, 11, 11)"  /> <path d=" M 100 200 15.277335808951431 300.5806943821855  L 300 600 271.69433805594855 438.2307675855374 " fill="rgb(0, 65, 65)"  /> <path d=" M 100 200 96.06958569051203 169.0151597498533  L 300 600 336.7416223526544 620.9366606737138 " fill="rgb(8, 40, 40)"  /> <path d=" M 100 200 87.75926711727912 165.1154942348647  L 300 600 293.3134386995721 845.4091957752242 " fill="rgb(1, 47, 47)"  /> <path d=" M 100 200 262.4207810079417 122.67992426261509  L 300 600 230.5563951182306 752.3404601552551 " fill="rgb(1, 49, 49)"  /> <path d=" M 100 200 35.49777671990725 139.05627249004309  L 300 600 359.96141253992215 667.8863409940103 " fill="rgb(1, 69, 69)"  /> <path d=" M 100 200 80.08294224839506 116.33507640576192  L 300 600 272.57798673685426 551.9145202584699 " fill="rgb(1, 139, 139)"  /> <path d=" M 100 200 86.46199695224858 132.54475721999395  L 300 600 147.745374929246 504.9767806166393 " fill="rgb(0, 11, 11)"  /> <path d=" M 100 200 68.86300018920697 273.89699481752666  L 300 600 296.243187442832 612.1631821770968 " fill="rgb(5, 223, 223)"  /> <path d=" M 100 200 66.06057781118355 118.84385897316756  L 300 600 269.6074239327571 571.9780026188462 " fill="rgb(6, 195, 195)"  /> <path d=" M 100 200 87.26829248633074 309.79369943077745  L 300 600 221.6866295081134 645.6273845247705 " fill="rgb(3, 131, 131)"  /> <path d=" M 100 200 111.49251804241473 136.1481536114985  L 300 600 162.3587118110803 732.9135638061457 " fill="rgb(8, 147, 147)"  /> <path d=" M 100 200 178.2953416872616 224.8227162429672  L 300 600 243.024921419034 415.11767590266066 " fill="rgb(2, 74, 74)"  /> <path d=" M 100 200 15.501405091449538 145.8821291981249  L 300 600 304.6799807997843 716.6173706084035 " fill="rgb(8, 11, 11)"  /> <path d=" M 100 200 151.69998624725764 158.0001518538869  L 300 600 422.99442437286336 674.1042834323739 " fill="rgb(6, 162, 162)"  /> <path d=" M 100 200 54.34078245319694 299.85601658675193  L 300 600 301.26105810445426 594.7679550719683 " fill="rgb(9, 50, 50)"  /> <path d=" M 100 200 34.551852336856335 209.73541176738576  L 300 600 408.6971515138798 720.8532863661062 " fill="rgb(1, 211, 211)"  /> <path d=" M 100 200 70.89639662586005 169.1402745148393  L 300 600 238.43966629066261 624.3524173181675 " fill="rgb(9, 165, 165)"  /> <path d=" M 100 200 20.612235348793362 125.30292286748659  L 300 600 239.38540761700463 662.6708739102459 " fill="rgb(8, 17, 17)"  /> <path d=" M 100 200 227.43693116749472 223.65358146865097  L 300 600 324.8121245861654 625.4017305379886 " fill="rgb(7, 41, 41)"  /> <path d=" M 100 200 108.1904373814226 200.67338187501406  L 300 600 390.1641322390521 470.4969801472275 " fill="rgb(0, 1, 1)"  /> <path d=" M 100 200 99.60190865492778 184.1521116956607  L 300 600 367.97137114191287 503.9404159495094 " fill="rgb(5, 66, 66)"  /> <path d=" M 100 200 203.85328984053407 162.26683846062437  L 300 600 266.12376540577867 499.10186440861605 " fill="rgb(8, 117, 117)"  /> </g></svg>